<svg width="18" height="14" viewBox="0 0 18 14" fill="none" xmlns="http://www.w3.org/2000/svg">
<path d="M1.13255 2.57627L8.74083 7.47266L16.3109 2.6003C16.3109 2.44477 16.3123 2.29914 16.3095 2.15492C16.3108 2.02537 16.2863 1.89687 16.2375 1.77689C16.1886 1.65691 16.1163 1.54787 16.0248 1.45613C15.9333 1.3644 15.8245 1.2918 15.7047 1.24257C15.5848 1.19334 15.4564 1.16848 15.3268 1.16942C10.9338 1.16659 6.54077 1.16659 2.14774 1.16942C1.73346 1.17084 1.34181 1.35889 1.19617 1.74206C1.10003 1.99939 1.11841 2.27935 1.13255 2.57627ZM1.16648 3.98736V11.7384C1.16648 12.4327 1.5652 12.8328 2.26085 12.8328H15.218C15.9122 12.8328 16.3109 12.4327 16.3109 11.737V3.9916L16.1003 4.12309C13.7899 5.60912 11.4796 7.09373 9.17349 8.58541C8.86949 8.78194 8.60792 8.78194 8.30251 8.584C6.62561 7.49245 4.94022 6.41363 3.25766 5.33057L1.16648 3.98736ZM8.74931 0.00152683H15.2463C16.5414 0.00152683 17.4746 0.933297 17.476 2.22562C17.476 5.40269 17.4774 8.57975 17.4746 11.7568C17.4746 13.0718 16.5541 13.9979 15.2434 13.9979C10.8758 14.0007 6.50825 14.0007 2.14067 13.9979C0.968532 13.9979 0.00565566 13.0392 0.00424175 11.8657C-0.00141392 8.62076 -0.00141392 5.37723 0.00424175 2.13371C0.00685605 1.56818 0.233156 1.02666 0.633715 0.627422C1.03427 0.228188 1.57654 0.00368214 2.14208 0.00294113C4.34496 -0.00271416 6.54643 0.00152683 8.74931 0.00152683Z" fill="#BCBCBC"/>
</svg>
