<svg width="128" height="128" viewBox="0 0 128 128" fill="none" xmlns="http://www.w3.org/2000/svg">
<path d="M105.179 55.0676C107.921 50.8025 107.779 44.4288 104.366 38.9256C100.953 33.4225 95.2618 30.3953 90.1546 30.8328C89.4706 25.8283 85.2005 21.036 78.9963 18.9822C72.7921 16.9284 66.4524 18.2057 62.8373 21.7863C59.0491 18.3851 52.6517 17.4118 46.5585 19.7718C40.4653 22.1319 36.4416 27.121 36.0086 32.1495C30.888 31.9439 25.35 35.2532 22.2235 40.9139C19.0969 46.5745 19.2701 52.9438 22.2235 57.0755C18.1687 60.1792 16.0858 66.2095 17.3849 72.5307C18.6839 78.8519 22.974 83.6201 27.9281 84.9128C26.8333 89.845 29.1804 95.7856 34.2988 99.808C39.4172 103.83 45.8168 104.762 50.4556 102.616C52.836 107.087 58.5117 110.154 65.0557 109.994C71.5996 109.834 77.1133 106.494 79.2672 101.914C84.0081 103.833 90.3566 102.588 95.2552 98.3228C100.154 94.0577 102.21 88.0099 100.869 83.1367C105.754 81.6056 109.804 76.6318 110.781 70.2559C111.758 63.8801 109.387 57.9526 105.179 55.0676Z" fill="#FFD121"/>
</svg>
