<svg width="13" height="20" viewBox="0 0 13 20" fill="none" xmlns="http://www.w3.org/2000/svg">
<path d="M7.48965 3.43731H4.99261C4.82695 3.43731 4.66807 3.37151 4.55093 3.25436C4.43379 3.13722 4.36798 2.97835 4.36798 2.81269C4.36798 2.64702 4.43379 2.48815 4.55093 2.371C4.66807 2.25386 4.82695 2.18805 4.99261 2.18805H7.48965C7.65531 2.18805 7.81419 2.25386 7.93133 2.371C8.04847 2.48815 8.11428 2.64702 8.11428 2.81269C8.11428 2.97835 8.04847 3.13722 7.93133 3.25436C7.81419 3.37151 7.65531 3.43731 7.48965 3.43731ZM1.7948 1.24926C1.64972 1.24926 1.51058 1.30689 1.408 1.40948C1.30541 1.51206 1.24778 1.6512 1.24778 1.79627V18.2022C1.24778 18.3473 1.30541 18.4865 1.408 18.589C1.51058 18.6916 1.64972 18.7493 1.7948 18.7493H10.6889C10.8338 18.7489 10.9725 18.6911 11.0748 18.5885C11.177 18.486 11.2345 18.3471 11.2345 18.2022V1.79627C11.2345 1.65145 11.177 1.51254 11.0748 1.41C10.9725 1.30746 10.8338 1.24965 10.6889 1.24926H1.7948ZM10.6889 20H1.7948C0.804258 20 0 19.1928 0 18.2022V1.79627C0 0.805737 0.804258 0 1.7948 0H10.6889C11.678 0 12.4823 0.805737 12.4823 1.79627V18.2022C12.4823 19.1928 11.678 20 10.6889 20Z" fill="#BCBCBC"/>
</svg>
